<svg width="21" height="30" viewBox="0 0 21 30" fill="none" xmlns="http://www.w3.org/2000/svg">
<path d="M10.7456 0.923828C5.35509 0.923828 0.969482 5.30943 0.969482 10.6999C0.969482 17.4752 10.7552 29.0488 10.7552 29.0488C10.7552 29.0488 20.5217 17.142 20.5217 10.6999C20.5217 5.30943 16.1363 0.923828 10.7456 0.923828ZM13.6953 13.5624C12.8819 14.3756 11.8139 14.7822 10.7456 14.7822C9.67753 14.7822 8.60911 14.3756 7.79612 13.5624C6.16962 11.9361 6.16962 9.28974 7.79612 7.66325C8.5837 6.87533 9.63135 6.44137 10.7456 6.44137C11.8599 6.44137 12.9073 6.8755 13.6953 7.66325C15.3218 9.28974 15.3218 11.9361 13.6953 13.5624Z" fill="#FF9900"/>
</svg>
