<svg width="28" height="30" viewBox="0 0 28 30" fill="none" xmlns="http://www.w3.org/2000/svg">
<path d="M7.81175 18.5296H2.63222C2.87858 17.6024 3.50911 16.8145 4.3974 16.3702L6.11811 15.5099C7.16275 14.9876 7.8117 13.9376 7.8117 12.7697C7.8117 11.0804 6.43734 9.70605 4.74805 9.70605H3.81658C2.12728 9.70605 0.75293 11.0804 0.75293 12.7697V13.2355H2.51764V12.7697C2.51764 12.0535 3.10034 11.4708 3.81658 11.4708H4.74811C5.46434 11.4708 6.04705 12.0535 6.04705 12.7697C6.04705 13.2649 5.77193 13.7101 5.32899 13.9315L3.60822 14.7919C1.84699 15.6725 0.75293 17.4428 0.75293 19.4119V20.2943H7.81175V18.5296Z" fill="#FF9900"/>
<path d="M13.9882 14.1178H12.7722C11.9831 14.1178 11.3412 13.4759 11.3412 12.6868V9.70605H9.57649V12.6868C9.57649 14.4489 11.0101 15.8825 12.7722 15.8825H13.9882V20.2943H15.753V9.70605H13.9882V14.1178Z" fill="#FF9900"/>
<path d="M23.9481 20.2634L27.2472 9.70605H20.4588V11.4708H24.8469L22.2636 19.737L23.9481 20.2634Z" fill="#FF9900"/>
<path d="M17.5176 14.1172H20.1647V15.8819H17.5176V14.1172Z" fill="#FF9900"/>
<path d="M13.1059 0H14.8706V3.52941H13.1059V0Z" fill="#FF9900"/>
<path d="M9.10244 1.93359L10.8071 1.47654L11.4166 3.74953L9.71187 4.20659L9.10244 1.93359Z" fill="#FF9900"/>
<path d="M5.42981 3.70605L6.95805 2.8237L8.13455 4.8614L6.60631 5.74375L5.42981 3.70605Z" fill="#FF9900"/>
<path d="M2.34081 6.36621L3.58846 5.11856L5.25199 6.78209L4.00434 8.02974L2.34081 6.36621Z" fill="#FF9900"/>
<path d="M16.5653 3.75098L17.1747 1.47798L18.8794 1.93504L18.27 4.20804L16.5653 3.75098Z" fill="#FF9900"/>
<path d="M19.8416 4.8623L21.0181 2.82461L22.5464 3.70696L21.3699 5.74466L19.8416 4.8623Z" fill="#FF9900"/>
<path d="M22.7199 6.78418L24.3835 5.12065L25.6311 6.3683L23.9676 8.03183L22.7199 6.78418Z" fill="#FF9900"/>
<path d="M13.1059 26.4707H14.8706V30.0001H13.1059V26.4707Z" fill="#FF9900"/>
<path d="M9.10521 28.0684L9.71463 25.7954L11.4193 26.2524L10.8099 28.5254L9.10521 28.0684Z" fill="#FF9900"/>
<path d="M5.42942 26.2939L6.60592 24.2562L8.13415 25.1386L6.95765 27.1763L5.42942 26.2939Z" fill="#FF9900"/>
<path d="M2.339 23.6318L4.00253 21.9683L5.25018 23.216L3.58665 24.8795L2.339 23.6318Z" fill="#FF9900"/>
<path d="M16.5678 26.2461L18.2725 25.789L18.8819 28.062L17.1772 28.5191L16.5678 26.2461Z" fill="#FF9900"/>
<path d="M19.8413 25.1377L21.3695 24.2553L22.546 26.293L21.0178 27.1754L19.8413 25.1377Z" fill="#FF9900"/>
<path d="M22.718 23.2178L23.9657 21.9701L25.6292 23.6337L24.3816 24.8813L22.718 23.2178Z" fill="#FF9900"/>
</svg>
