<svg width="18" height="18" viewBox="0 0 18 18" fill="none" xmlns="http://www.w3.org/2000/svg">
<path d="M9.00123 0C6.42979 0 4.32776 2.10203 4.32776 4.67348C4.32776 7.24492 6.42979 9.34695 9.00123 9.34695C11.5727 9.34695 13.6747 7.24492 13.6747 4.67348C13.6747 2.10203 11.5727 0 9.00123 0Z" fill="black"/>
<path d="M17.0217 13.0815C16.8993 12.7754 16.736 12.4897 16.5524 12.2244C15.6136 10.8366 14.1646 9.91824 12.532 9.69375C12.3279 9.67336 12.1034 9.71414 11.9401 9.8366C11.083 10.4693 10.0626 10.7958 9.00136 10.7958C7.9401 10.7958 6.91971 10.4693 6.06257 9.8366C5.89928 9.71414 5.67479 9.65293 5.47073 9.69375C3.83807 9.91824 2.3687 10.8366 1.45034 12.2244C1.26667 12.4897 1.10339 12.7958 0.980964 13.0815C0.919753 13.204 0.940144 13.3468 1.00135 13.4693C1.16464 13.755 1.3687 14.0407 1.55237 14.2856C1.83807 14.6734 2.14421 15.0203 2.49116 15.3468C2.77686 15.6325 3.10339 15.8978 3.42995 16.1632C5.04217 17.3673 6.98096 17.9999 8.98096 17.9999C10.981 17.9999 12.9198 17.3672 14.532 16.1632C14.8585 15.9183 15.185 15.6325 15.4708 15.3468C15.7973 15.0203 16.1238 14.6734 16.4096 14.2856C16.6136 14.0203 16.7973 13.755 16.9606 13.4693C17.0626 13.3468 17.083 13.2039 17.0217 13.0815Z" fill="black"/>
</svg>
